<?xml version="1.0" encoding="UTF-8"?>
<svg id="Layer_1" xmlns="http://www.w3.org/2000/svg" version="1.1" viewBox="0 0 790.9 566.9">
  <!-- Generator: Adobe Illustrator 30.2.1, SVG Export Plug-In . SVG Version: 2.1.1 Build 1)  -->
  <defs>
    <style>
      .st0 {
        fill: #fff;
      }
    </style>
  </defs>
  <path class="st0" d="M150.9,404.7l-76.3-45c-4.7-2.8-4.7-9.7.1-12.4l75.8-42.8h0c4.2,7.4,1.6,16.8-5.9,21l-49.8,28.1,55.8,32.9,34-79.2c1.7-4,6.5-5.5,10.2-3.3l76.3,45c4.7,2.8,4.7,9.7-.1,12.4l-75.8,42.8h0c-4.2-7.4-1.6-16.8,5.9-21l49.8-28.1-55.8-32.9-34,79.2c-1.7,4-6.5,5.5-10.2,3.3Z"/>
  <g>
    <path class="st0" d="M146,297.7l-77.1,43.6c-4.8,2.7-10.7-.8-10.6-6.3l.8-87h0c8.5,0,15.4,7.1,15.3,15.6l-.5,57.2,56.4-31.9-51.6-69c-2.6-3.4-1.5-8.4,2.2-10.5l77.1-43.6c4.8-2.7,10.7.8,10.6,6.3l-.8,87h0c-8.5,0-15.4-7.1-15.3-15.6l.5-57.2-56.4,31.9,51.6,69c2.6,3.4,1.5,8.4-2.2,10.5Z"/>
    <path class="st0" d="M285.4,246.5l-.9,88.6c0,5.5-6,8.9-10.8,6.1l-74.9-44.2h0c4.3-7.3,13.8-9.8,21.1-5.4l49.2,29.1.6-64.8-85.6,10.1c-4.3.5-8-2.9-8-7.2l.9-88.6c0-5.5,6-8.9,10.8-6.1l74.9,44.2h0c-4.3,7.3-13.8,9.8-21.1,5.4l-49.2-29.1-.6,64.8,85.6-10.1c4.3-.5,8,2.9,8,7.2Z"/>
  </g>
</svg>