<?xml version="1.0" encoding="UTF-8"?>
<svg id="Layer_1" xmlns="http://www.w3.org/2000/svg" version="1.1" viewBox="0 0 790.9 566.9">
  <!-- Generator: Adobe Illustrator 30.2.1, SVG Export Plug-In . SVG Version: 2.1.1 Build 1)  -->
  <defs>
    <style>
      .st0 {
        fill: #f17c21;
      }

      .st1 {
        fill: #2aabbf;
      }

      .st2 {
        fill: #59595c;
      }
    </style>
  </defs>
  <g>
    <path class="st0" d="M333.5,242.8l10.1,14.5h12.9l-11.5-16.7s0,0,0,0c3.4-1.5,5.9-3.6,7.8-6.4,1.8-2.8,2.7-6.1,2.7-10,0-5.8-2-10.4-6-13.7-4-3.3-9.6-5-16.8-5h-22.1v51.8h12.1v-14.5h10.4c.2,0,.3,0,.5,0ZM340.6,217.6c1.9,1.6,2.8,3.8,2.8,6.6s-.9,5.1-2.8,6.7c-1.9,1.6-4.6,2.4-8.3,2.4h-9.7v-18h9.7c3.7,0,6.4.8,8.3,2.3Z"/>
    <path class="st2" d="M373.8,255.2c3.4,1.8,7.4,2.7,11.9,2.7s6.8-.6,9.5-1.7c2.8-1.1,5.1-2.7,6.9-4.8l-6.1-6.7c-1.3,1.3-2.8,2.2-4.4,2.9-1.6.6-3.4,1-5.5,1s-4.5-.4-6.2-1.3c-1.7-.9-3.1-2.1-4.1-3.7-.5-.9-.9-1.9-1.2-3h30.1c0-.5,0-1,.1-1.6,0-.6,0-1.1,0-1.5,0-4.3-.9-8-2.7-11-1.8-3.1-4.3-5.4-7.4-7.1-3.1-1.7-6.6-2.5-10.5-2.5s-7.7.9-10.9,2.6c-3.2,1.8-5.7,4.2-7.5,7.3-1.8,3.1-2.7,6.6-2.7,10.6s.9,7.5,2.8,10.5c1.9,3.1,4.5,5.5,7.9,7.3ZM379.1,226.9c1.5-.9,3.2-1.3,5.2-1.3s3.7.4,5.2,1.3c1.5.9,2.6,2.1,3.5,3.6.6,1,.9,2.2,1.1,3.4h-19.5c.2-1.2.5-2.4,1.1-3.4.8-1.6,2-2.8,3.5-3.6Z"/>
    <path class="st2" d="M434,248.2c-1.1.6-3,1-5.7,1s-4.9-.4-7.4-1.1c-2.5-.7-4.7-1.6-6.6-2.7l-3.8,8.2c1.9,1.2,4.4,2.3,7.5,3.1,3.1.8,6.4,1.2,9.8,1.2s7.4-.5,10.2-1.6c2.8-1.1,4.9-2.6,6.4-4.5,1.5-1.9,2.2-4.1,2.2-6.5s-.4-4.1-1.3-5.6c-.9-1.4-2-2.6-3.5-3.4-1.5-.8-3-1.4-4.7-1.9-1.7-.4-3.4-.8-5.1-1-1.7-.2-3.3-.5-4.7-.7-1.4-.2-2.6-.6-3.5-1.1-.9-.5-1.3-1.3-1.3-2.3s.6-2,1.8-2.7c1.2-.7,3.1-1,5.8-1s3.6.2,5.6.7c2,.4,3.9,1.2,5.7,2.3l3.9-8.2c-1.9-1.1-4.3-1.9-7.1-2.6-2.8-.6-5.6-.9-8.3-.9s-7.1.5-9.8,1.6c-2.7,1.1-4.8,2.6-6.3,4.6s-2.2,4.2-2.2,6.7.4,4.1,1.3,5.6c.9,1.4,2,2.6,3.5,3.4,1.5.8,3,1.4,4.7,1.9,1.7.4,3.4.8,5.1,1,1.7.2,3.3.5,4.7.7,1.4.2,2.5.6,3.4,1.1.9.5,1.3,1.2,1.3,2.1s-.6,2-1.7,2.7Z"/>
    <path class="st2" d="M463.5,255.2c3.4,1.8,7.4,2.7,11.9,2.7s6.8-.6,9.5-1.7c2.8-1.1,5.1-2.7,6.9-4.8l-6.1-6.7c-1.3,1.3-2.8,2.2-4.4,2.9-1.6.6-3.4,1-5.5,1s-4.5-.4-6.2-1.3c-1.7-.9-3.1-2.1-4.1-3.7-.5-.9-.9-1.9-1.2-3h30.1c0-.5,0-1,.1-1.6,0-.6,0-1.1,0-1.5,0-4.3-.9-8-2.7-11-1.8-3.1-4.3-5.4-7.4-7.1s-6.6-2.5-10.5-2.5-7.7.9-10.9,2.6c-3.2,1.8-5.7,4.2-7.5,7.3-1.8,3.1-2.7,6.6-2.7,10.6s.9,7.5,2.8,10.5c1.9,3.1,4.5,5.5,7.9,7.3ZM468.8,226.9c1.5-.9,3.2-1.3,5.2-1.3s3.7.4,5.2,1.3c1.5.9,2.6,2.1,3.5,3.6.6,1,.9,2.2,1.1,3.4h-19.5c.2-1.2.5-2.4,1.1-3.4.8-1.6,2-2.8,3.5-3.6Z"/>
    <path class="st2" d="M517.7,234c-4.1,0-7.4.5-9.9,1.5-2.5,1-4.4,2.4-5.5,4.2-1.2,1.8-1.7,3.9-1.7,6.2s.6,4.3,1.8,6.1c1.2,1.8,2.9,3.3,5.1,4.3,2.2,1.1,4.9,1.6,7.9,1.6s6.4-.7,8.6-2c1.5-.9,2.7-2.1,3.6-3.5v5h10.8v-22.7c0-6.1-1.7-10.5-5-13.4-3.4-2.9-8.1-4.3-14.1-4.3s-6.3.4-9.3,1.2c-3.1.8-5.7,2-7.8,3.6l4.1,8.1c1.5-1.1,3.2-2,5.3-2.7,2-.7,4.1-1,6.3-1,3.1,0,5.4.7,6.9,2.1,1.5,1.4,2.3,3.3,2.3,5.8h0c0,0-9.1,0-9.1,0ZM523.5,248.8c-1.6.9-3.3,1.3-5.3,1.3s-3.5-.4-4.7-1.3c-1.2-.9-1.7-2-1.7-3.5s.5-2.4,1.5-3.3,2.9-1.3,5.6-1.3h7.9v4.1c-.6,1.8-1.7,3.2-3.3,4.1Z"/>
    <path class="st2" d="M562.2,238.5c0-3.8,1-6.6,2.9-8.4,1.9-1.8,4.5-2.7,7.8-2.7s.8,0,1.2,0c.4,0,.8.1,1.3.2v-10.7c-3.8,0-6.9.7-9.5,2.2-1.7.9-3.1,2.1-4.1,3.6v-5.2h-11v39.8h11.5v-18.8Z"/>
    <path class="st2" d="M591.5,255.3c3.3,1.8,7.1,2.6,11.4,2.6s7.9-.9,11-2.7c3.1-1.8,5.4-4.2,6.8-7.4l-8.9-4.9c-1.1,1.9-2.4,3.3-3.9,4.2-1.5.9-3.2,1.3-5,1.3s-3.7-.4-5.3-1.3c-1.6-.9-2.8-2.1-3.8-3.8-.9-1.7-1.4-3.6-1.4-6s.5-4.3,1.4-5.9c.9-1.6,2.2-2.9,3.8-3.7,1.6-.9,3.3-1.3,5.3-1.3s3.5.4,5,1.3c1.5.9,2.8,2.2,3.9,4.1l8.9-4.9c-1.4-3.2-3.6-5.7-6.8-7.4-3.1-1.7-6.8-2.6-11-2.6s-8.1.9-11.4,2.7c-3.3,1.8-5.9,4.2-7.8,7.3-1.9,3.1-2.8,6.6-2.8,10.6s.9,7.5,2.8,10.6c1.9,3.1,4.5,5.5,7.8,7.3Z"/>
    <path class="st2" d="M640.6,237.6c0-2.5.4-4.5,1.2-6.1.8-1.5,2-2.7,3.4-3.5,1.5-.8,3.1-1.2,4.9-1.2s4.6.8,6,2.3c1.4,1.5,2.1,3.9,2.1,7.1v21h11.5v-22.8c0-4-.7-7.4-2.1-10-1.4-2.6-3.4-4.5-5.9-5.8-2.5-1.3-5.3-1.9-8.5-1.9s-6.4.7-9.1,2.1c-1.3.7-2.5,1.6-3.5,2.6v-19.3h-11.5v54.9h11.5v-19.7Z"/>
  </g>
  <g>
    <path class="st0" d="M337.4,309.5c-1.5.5-3.4.7-5.7.7s-6.2-.5-9.3-1.5c-3.1-1-5.7-2.3-7.8-3.9l-4.1,9c2.3,1.8,5.4,3.2,9.2,4.3,3.8,1.1,7.8,1.7,12,1.7s9-.7,12.2-2.2c3.3-1.5,5.7-3.4,7.3-5.8,1.6-2.4,2.4-5.1,2.4-8s-.6-4.9-1.7-6.7c-1.1-1.8-2.6-3.2-4.3-4.3-1.8-1.1-3.7-1.9-5.8-2.6-2.1-.7-4.3-1.3-6.4-1.7-2.2-.5-4.1-.9-5.9-1.4-1.8-.5-3.2-1.1-4.3-2-1.1-.8-1.6-1.9-1.6-3.3s.3-2.1,1-3c.7-.9,1.7-1.6,3.1-2.1,1.4-.5,3.3-.8,5.7-.8s4.6.3,7.1,1c2.5.7,4.9,1.7,7.2,3l3.8-9c-2.4-1.5-5.1-2.6-8.3-3.4-3.2-.8-6.4-1.2-9.7-1.2-4.9,0-8.9.7-12.2,2.2-3.2,1.5-5.6,3.4-7.2,5.8-1.6,2.4-2.4,5.1-2.4,8.1s.5,5,1.6,6.8,2.5,3.3,4.3,4.4c1.8,1.1,3.8,2,5.9,2.7,2.1.7,4.3,1.2,6.4,1.7,2.1.5,4.1,1,5.9,1.5,1.8.5,3.2,1.2,4.3,2,1.1.8,1.6,1.9,1.6,3.3s-.3,2-1,2.8c-.7.8-1.8,1.5-3.2,2Z"/>
    <path class="st2" d="M381.7,278.6c-4.2,0-7.9.9-11.2,2.6-3.3,1.8-5.9,4.2-7.7,7.3-1.9,3.1-2.8,6.6-2.8,10.6s.9,7.5,2.8,10.5c1.9,3.1,4.5,5.5,7.7,7.3,3.3,1.8,7,2.7,11.2,2.7s8-.9,11.3-2.7,5.9-4.2,7.8-7.3c1.9-3.1,2.8-6.6,2.8-10.6s-.9-7.5-2.8-10.6c-1.9-3.1-4.5-5.5-7.8-7.3-3.3-1.7-7.1-2.6-11.3-2.6ZM390.6,305c-.9,1.7-2.1,2.9-3.6,3.8s-3.2,1.3-5.2,1.3-3.6-.4-5.1-1.3-2.7-2.1-3.7-3.8c-.9-1.7-1.4-3.7-1.4-5.9s.5-4.3,1.4-5.9c.9-1.6,2.1-2.9,3.7-3.7s3.3-1.3,5.2-1.3,3.6.4,5.1,1.3,2.7,2.1,3.6,3.7c.9,1.6,1.4,3.6,1.4,5.9s-.5,4.2-1.4,5.9Z"/>
    <path class="st2" d="M425.8,280.1v-1.6c0-2,.5-3.5,1.4-4.4.9-.9,2.2-1.4,3.9-1.4s1.7.1,2.5.4,1.5.6,2.2,1l3-8.4c-1.1-.7-2.4-1.2-4-1.6-1.6-.3-3.2-.5-4.8-.5-4.9,0-8.7,1.3-11.4,4-2.7,2.7-4,6.3-4,10.8v1.8h-6.1v8.9h6.1v30.1h11.6v-30.1h18.9v16.4c0,4.7,1.3,8.3,3.9,10.7,2.6,2.4,6.3,3.6,11,3.6s3.5-.2,5.1-.6c1.7-.4,3-1,4.2-1.9l-3-8.1c-1.3,1-2.9,1.5-4.7,1.5s-2.7-.5-3.5-1.4c-.9-.9-1.3-2.2-1.3-3.9v-16.1h10.2v-8.9h-10.2v-9.7h-11.6v9.7h-19.2Z"/>
    <polygon class="st2" points="521.1 306.3 511.6 279.2 501.7 279.2 492 306 482.6 279.2 471.7 279.2 486.1 319 497.3 319 506.4 294.2 515.4 319 526.5 319 540.9 279.2 530.7 279.2 521.1 306.3"/>
    <path class="st2" d="M567.4,317.5c1.5-.9,2.7-2.1,3.6-3.5v5h10.8v-22.7c0-6.1-1.7-10.5-5-13.4-3.4-2.9-8.1-4.3-14.1-4.3s-6.3.4-9.3,1.2c-3.1.8-5.7,2-7.8,3.6l4.1,8.1c1.5-1.1,3.2-2,5.3-2.7,2-.7,4.1-1,6.3-1,3.1,0,5.4.7,6.9,2.1,1.5,1.4,2.3,3.3,2.3,5.8h0c0,0-9.1,0-9.1,0-4.1,0-7.4.5-9.9,1.5-2.5,1-4.4,2.4-5.5,4.2-1.2,1.8-1.7,3.9-1.7,6.2s.6,4.3,1.8,6.1c1.2,1.8,2.9,3.3,5.1,4.3,2.2,1.1,4.9,1.6,7.9,1.6s6.4-.7,8.6-2ZM555.2,307c0-1.3.5-2.4,1.5-3.3,1-.9,2.9-1.3,5.6-1.3h7.9v4.1c-.6,1.8-1.7,3.2-3.3,4.1s-3.3,1.3-5.3,1.3-3.5-.4-4.7-1.3c-1.2-.9-1.7-2-1.7-3.5Z"/>
    <path class="st2" d="M594.1,279.2v39.8h11.5v-18.8c0-3.8,1-6.6,2.9-8.4,1.9-1.8,4.5-2.7,7.8-2.7s.8,0,1.2,0c.4,0,.8.1,1.3.2v-10.7c-3.8,0-6.9.7-9.5,2.2-1.7.9-3.1,2.1-4.1,3.6v-5.2h-11Z"/>
    <path class="st2" d="M656.5,317.9c2.8-1.1,5.1-2.7,6.9-4.8l-6.1-6.7c-1.3,1.3-2.8,2.2-4.4,2.9-1.6.6-3.4,1-5.5,1s-4.5-.4-6.2-1.3c-1.7-.9-3.1-2.1-4.1-3.7-.5-.9-.9-1.9-1.2-3h30.1c0-.5,0-1,.1-1.6,0-.6,0-1.1,0-1.5,0-4.3-.9-8-2.7-11-1.8-3.1-4.3-5.4-7.4-7.1-3.1-1.7-6.6-2.5-10.5-2.5s-7.7.9-10.9,2.6c-3.2,1.8-5.7,4.2-7.5,7.3-1.8,3.1-2.7,6.6-2.7,10.6s.9,7.5,2.8,10.5c1.9,3.1,4.5,5.5,7.9,7.3,3.4,1.8,7.4,2.7,11.9,2.7s6.8-.6,9.5-1.7ZM640.3,288.6c1.5-.9,3.2-1.3,5.2-1.3s3.7.4,5.2,1.3c1.5.9,2.6,2.1,3.5,3.6.6,1,.9,2.2,1.1,3.4h-19.5c.2-1.2.5-2.4,1.1-3.4.8-1.6,2-2.8,3.5-3.6Z"/>
  </g>
  <g>
    <polygon class="st0" points="322.4 359.1 346.5 359.1 346.5 349.7 322.4 349.7 322.4 338.5 349.7 338.5 349.7 328.9 310.5 328.9 310.5 380.7 350.7 380.7 350.7 371 322.4 371 322.4 359.1"/>
    <path class="st0" d="M374.9,351.1c1.6-.9,3.3-1.3,5.3-1.3s3.5.4,5,1.3c1.5.9,2.8,2.2,3.9,4.1l8.9-4.9c-1.4-3.2-3.6-5.7-6.8-7.4-3.1-1.7-6.8-2.6-11-2.6s-8.1.9-11.4,2.7c-3.3,1.8-5.9,4.2-7.8,7.3-1.9,3.1-2.8,6.6-2.8,10.6s.9,7.5,2.8,10.6c1.9,3.1,4.5,5.5,7.8,7.3,3.3,1.8,7.1,2.6,11.4,2.6s7.9-.9,11-2.7c3.1-1.8,5.4-4.2,6.8-7.4l-8.9-4.9c-1.1,1.9-2.4,3.3-3.9,4.2-1.5.9-3.2,1.3-5,1.3s-3.7-.4-5.3-1.3c-1.6-.9-2.8-2.1-3.8-3.8-.9-1.7-1.4-3.6-1.4-6s.5-4.3,1.4-5.9c.9-1.6,2.2-2.9,3.8-3.7Z"/>
    <path class="st2" d="M436.2,342.9c-3.3-1.7-7.1-2.6-11.3-2.6s-7.9.9-11.2,2.6c-3.3,1.8-5.9,4.2-7.7,7.3-1.9,3.1-2.8,6.6-2.8,10.6s.9,7.5,2.8,10.5c1.9,3.1,4.5,5.5,7.7,7.3,3.3,1.8,7,2.7,11.2,2.7s8-.9,11.3-2.7c3.3-1.8,5.9-4.2,7.8-7.3,1.9-3.1,2.8-6.6,2.8-10.6s-.9-7.5-2.8-10.6c-1.9-3.1-4.5-5.5-7.8-7.3ZM433.7,366.7c-.9,1.7-2.1,2.9-3.6,3.8-1.5.9-3.2,1.3-5.2,1.3s-3.6-.4-5.1-1.3c-1.5-.9-2.7-2.1-3.7-3.8-.9-1.7-1.4-3.7-1.4-5.9s.5-4.3,1.4-5.9c.9-1.6,2.1-2.9,3.7-3.7,1.5-.9,3.3-1.3,5.2-1.3s3.6.4,5.1,1.3c1.5.9,2.7,2.1,3.6,3.7.9,1.6,1.4,3.6,1.4,5.9s-.5,4.2-1.4,5.9Z"/>
    <path class="st2" d="M483.8,359.8c-1.5-.8-3-1.4-4.7-1.9-1.7-.4-3.4-.8-5.1-1-1.7-.2-3.3-.5-4.7-.7-1.4-.2-2.6-.6-3.5-1.2-.9-.5-1.3-1.3-1.3-2.3s.6-2,1.8-2.7,3.1-1,5.8-1,3.6.2,5.6.7c2,.4,3.9,1.2,5.7,2.3l3.9-8.2c-1.9-1.1-4.3-1.9-7.1-2.6-2.8-.6-5.6-.9-8.3-.9s-7.1.5-9.8,1.6c-2.7,1.1-4.8,2.6-6.3,4.6-1.5,2-2.2,4.2-2.2,6.7s.4,4.1,1.3,5.6c.9,1.4,2,2.6,3.5,3.4s3,1.4,4.7,1.9c1.7.4,3.4.8,5.1,1,1.7.2,3.3.5,4.7.7,1.4.2,2.5.6,3.4,1.1.9.5,1.3,1.2,1.3,2.1s-.6,2-1.7,2.7c-1.1.6-3,1-5.7,1s-4.9-.4-7.4-1.1c-2.5-.7-4.7-1.6-6.6-2.7l-3.8,8.2c1.9,1.2,4.4,2.3,7.5,3.1,3.1.8,6.4,1.2,9.8,1.2s7.4-.5,10.2-1.6c2.8-1.1,4.9-2.6,6.4-4.5,1.5-1.9,2.2-4.1,2.2-6.5s-.4-4.1-1.3-5.6c-.9-1.4-2-2.6-3.5-3.4Z"/>
    <path class="st2" d="M514.7,367.9l-11.2-27h-11.8l17.2,40.1v.3c-.9,1.8-1.8,3-2.8,3.8s-2.2,1.1-3.8,1.1-2.4-.2-3.5-.7c-1.2-.4-2.2-1.1-3.1-1.9l-4.2,8.3c1.3,1.1,3,2,5,2.7,2,.6,4,1,6.1,1s4.6-.4,6.6-1.1c2-.7,3.8-2,5.5-3.8,1.7-1.8,3.1-4.3,4.4-7.6l18-42.3h-11l-11.3,27Z"/>
    <path class="st2" d="M570.4,359.8c-1.5-.8-3-1.4-4.7-1.9-1.7-.4-3.4-.8-5.1-1-1.7-.2-3.3-.5-4.7-.7-1.4-.2-2.6-.6-3.5-1.2-.9-.5-1.3-1.3-1.3-2.3s.6-2,1.8-2.7c1.2-.7,3.1-1,5.8-1s3.6.2,5.6.7c2,.4,3.9,1.2,5.7,2.3l3.9-8.2c-1.9-1.1-4.3-1.9-7.1-2.6-2.8-.6-5.6-.9-8.3-.9s-7.1.5-9.8,1.6c-2.7,1.1-4.8,2.6-6.3,4.6-1.5,2-2.2,4.2-2.2,6.7s.4,4.1,1.3,5.6c.9,1.4,2,2.6,3.5,3.4s3,1.4,4.7,1.9c1.7.4,3.4.8,5.1,1,1.7.2,3.3.5,4.7.7,1.4.2,2.5.6,3.4,1.1.9.5,1.3,1.2,1.3,2.1s-.6,2-1.7,2.7c-1.1.6-3,1-5.7,1s-4.9-.4-7.4-1.1c-2.5-.7-4.7-1.6-6.6-2.7l-3.8,8.2c1.9,1.2,4.4,2.3,7.5,3.1,3.1.8,6.4,1.2,9.8,1.2s7.4-.5,10.2-1.6c2.8-1.1,4.9-2.6,6.4-4.5,1.5-1.9,2.2-4.1,2.2-6.5s-.4-4.1-1.3-5.6c-.9-1.4-2-2.6-3.5-3.4Z"/>
    <path class="st2" d="M602,372.1c-1.5,0-2.7-.5-3.5-1.4-.9-.9-1.3-2.2-1.3-3.9v-17h9.8v-8.9h-9.8v-8.8h-11.6v8.8h-6.1v8.9h6.1v17.2c0,4.7,1.3,8.3,3.9,10.7,2.6,2.4,6.3,3.6,11,3.6s3.5-.2,5.1-.6c1.7-.4,3-1,4.2-1.9l-3-8.1c-1.3,1-2.9,1.5-4.7,1.5Z"/>
    <path class="st2" d="M645.8,342.8c-3.1-1.7-6.6-2.5-10.5-2.5s-7.7.9-10.9,2.6c-3.2,1.8-5.7,4.2-7.5,7.3-1.8,3.1-2.7,6.6-2.7,10.6s.9,7.5,2.8,10.5c1.9,3.1,4.5,5.5,7.9,7.3,3.4,1.8,7.4,2.7,11.9,2.7s6.8-.6,9.5-1.7c2.8-1.1,5.1-2.7,6.9-4.8l-6.1-6.7c-1.3,1.3-2.8,2.2-4.4,2.9-1.6.6-3.4,1-5.5,1s-4.5-.4-6.2-1.3c-1.7-.9-3.1-2.1-4.1-3.7-.5-.9-.9-1.9-1.2-3h30.1c0-.5,0-1,.1-1.6,0-.6,0-1.1,0-1.5,0-4.3-.9-8-2.7-11-1.8-3.1-4.3-5.4-7.4-7.1ZM630.1,350.3c1.5-.9,3.2-1.3,5.2-1.3s3.7.4,5.2,1.3c1.5.9,2.6,2.1,3.5,3.6.6,1,.9,2.2,1.1,3.4h-19.5c.2-1.2.5-2.4,1.1-3.4.8-1.6,2-2.8,3.5-3.6Z"/>
    <path class="st2" d="M730.6,347.9c-1.4-2.6-3.3-4.5-5.7-5.8-2.4-1.3-5.2-1.9-8.4-1.9s-7.2.9-10.1,2.8c-1.7,1.1-3,2.3-4.2,3.7-.9-1.5-2.1-2.8-3.6-3.7-2.8-1.8-6-2.8-9.6-2.8s-6.1.7-8.7,2.1c-1.5.8-2.7,1.8-3.8,3v-4.6h-11v39.8h11.5v-20c0-2.4.4-4.4,1.1-5.9.7-1.5,1.8-2.6,3.1-3.4s2.8-1.1,4.5-1.1c2.5,0,4.4.8,5.7,2.3,1.3,1.5,2,3.9,2,7.1v21h11.5v-20c0-2.4.4-4.4,1.1-5.9.7-1.5,1.7-2.6,3.1-3.4,1.3-.8,2.9-1.1,4.6-1.1s4.2.8,5.5,2.3c1.3,1.5,2,3.9,2,7.1v21h11.5v-22.8c0-4-.7-7.4-2.1-10Z"/>
  </g>
  <g>
    <path class="st2" d="M150.9,404.7l-76.3-45c-4.7-2.8-4.7-9.7.1-12.4l75.8-42.8h0c4.2,7.4,1.6,16.8-5.9,21l-49.8,28.1,55.8,32.9,34-79.2c1.7-4,6.5-5.5,10.2-3.3l76.3,45c4.7,2.8,4.7,9.7-.1,12.4l-75.8,42.8h0c-4.2-7.4-1.6-16.8,5.9-21l49.8-28.1-55.8-32.9-34,79.2c-1.7,4-6.5,5.5-10.2,3.3Z"/>
    <g>
      <path class="st0" d="M146,297.7l-77.1,43.6c-4.8,2.7-10.7-.8-10.6-6.3l.8-87h0c8.5,0,15.4,7.1,15.3,15.6l-.5,57.2,56.4-31.9-51.6-69c-2.6-3.4-1.5-8.4,2.2-10.5l77.1-43.6c4.8-2.7,10.7.8,10.6,6.3l-.8,87h0c-8.5,0-15.4-7.1-15.3-15.6l.5-57.2-56.4,31.9,51.6,69c2.6,3.4,1.5,8.4-2.2,10.5Z"/>
      <path class="st1" d="M285.4,246.5l-.9,88.6c0,5.5-6,8.9-10.8,6.1l-74.9-44.2h0c4.3-7.3,13.8-9.8,21.1-5.4l49.2,29.1.6-64.8-85.6,10.1c-4.3.5-8-2.9-8-7.2l.9-88.6c0-5.5,6-8.9,10.8-6.1l74.9,44.2h0c-4.3,7.3-13.8,9.8-21.1,5.4l-49.2-29.1-.6,64.8,85.6-10.1c4.3-.5,8,2.9,8,7.2Z"/>
    </g>
  </g>
</svg>